<?xml version="1.0" encoding="utf-8"?>
<!-- Generator: Adobe Illustrator 23.0.3, SVG Export Plug-In . SVG Version: 6.00 Build 0)  -->
<svg version="1.1" id="firstpage" xmlns="http://www.w3.org/2000/svg" xmlns:xlink="http://www.w3.org/1999/xlink" x="0px" y="0px"
	 viewBox="0 0 640 360" style="enable-background:new 0 0 640 360;" xml:space="preserve">
<style type="text/css">
	.st0{fill:#121F29;}
	.st1{fill:#FFFFFF;}
	.st2{fill:none;}
	.st3{fill:#DC5F11;}
	.st4{fill:#FEB700;}
	.st5{opacity:0.7;}
	.st6{clip-path:url(#SVGID_2_);}
	.st7{fill:#E3E3E3;}
	.st8{fill:#BEBEBE;}
	.st9{fill:#9C9C9C;}
	.st10{opacity:0.8;}
	.st11{clip-path:url(#SVGID_4_);}
	.st12{fill:#CECECE;}
	.st13{fill:#1E1E1E;}
	.st14{clip-path:url(#SVGID_6_);}
	.st15{fill:#AFAFAF;}
	.st16{opacity:0.9;}
	.st17{clip-path:url(#SVGID_8_);}
</style>
<g id="background">
	<rect class="st0" width="640" height="360"/>
</g>
<g id="horseline">
	<g>
		<g>
			<g>
				<path class="st1" d="M340.68,112.15c-0.47,1.3-0.57,2.75-0.21,4.09c0.35,1.34,1.15,2.56,2.22,3.43c1.07,0.85,2.4,1.52,3.79,1.46
					c0.69-0.06,1.35-0.31,2.05-0.32c0.69-0.02,1.39,0.09,2.05,0.29c1.35,0.4,2.39,1.4,3.61,2.05c1.21,0.67,2.52,1.17,3.86,1.51
					c0.67,0.15,1.38,0.29,2.04,0.07c0.68-0.21,1.08-0.82,1.58-1.3c0.52-0.5,1.31-0.58,1.97-0.39c0.33,0.09,0.71,0.06,0.93-0.22
					c0.22-0.26,0.3-0.61,0.33-0.95c0.1-1.38-0.34-2.75-0.92-3.99c-0.6-1.25-1.37-2.41-2.22-3.5c-1.68-2.21-3.77-4.05-5.94-5.77
					c-1.09-0.86-2.21-1.67-3.3-2.52c-1.06-0.86-2.23-1.77-2.68-3.13c-0.23-0.67-0.18-1.39-0.19-2.07c-0.01-0.69-0.07-1.38-0.18-2.06
					c-0.21-1.37-0.6-2.7-1.16-3.97l0.08,0l-1.7,2.56c-0.56,0.86-1.12,1.71-1.77,2.51l-1.94,2.39c-0.32,0.4-0.65,0.79-0.9,1.23
					c-0.05,0.11-0.12,0.24-0.07,0.32c0.05,0.08,0.21,0.05,0.32,0.02c0.24-0.07,0.47-0.18,0.7-0.29l0.04,0.06
					c-3.06,2.1-6.02,4.34-8.87,6.71c-2.85,2.37-5.56,4.92-8.21,7.51c-2.67,2.55-5.32,5.27-8.72,6.84c-3.4,1.54-7.3,1.72-10.9,0.83
					c3.6,0.88,7.5,0.69,10.89-0.85c3.39-1.57,6.04-4.29,8.7-6.84c2.65-2.6,5.35-5.15,8.2-7.52c2.85-2.38,5.81-4.62,8.86-6.73
					l0.04,0.06c-0.23,0.11-0.46,0.22-0.72,0.29c-0.12,0.02-0.28,0.09-0.4-0.05c-0.08-0.16,0.02-0.28,0.06-0.4
					c0.26-0.45,0.59-0.85,0.91-1.25l1.93-2.39c0.65-0.79,1.21-1.65,1.77-2.51l1.69-2.56l0.05-0.07l0.03,0.08
					c0.56,1.27,0.95,2.62,1.17,3.99c0.11,0.69,0.17,1.38,0.18,2.08c0.01,0.69-0.04,1.39,0.18,2.05c0.43,1.32,1.58,2.24,2.64,3.09
					c1.09,0.85,2.22,1.67,3.3,2.53c2.17,1.72,4.27,3.58,5.95,5.79c0.85,1.09,1.63,2.26,2.22,3.51c0.59,1.25,1.03,2.62,0.92,4.02
					c-0.04,0.34-0.12,0.7-0.35,0.98c-0.22,0.3-0.65,0.33-0.98,0.24c-0.66-0.19-1.42-0.11-1.93,0.37c-0.49,0.47-0.9,1.1-1.6,1.31
					c-0.68,0.22-1.39,0.09-2.06-0.07c-1.34-0.35-2.65-0.85-3.86-1.52c-1.22-0.65-2.25-1.65-3.6-2.05c-0.66-0.2-1.35-0.31-2.05-0.29
					c-0.7,0-1.36,0.26-2.05,0.31c-1.4,0.06-2.73-0.62-3.8-1.47c-1.08-0.87-1.87-2.09-2.22-3.44
					C340.11,114.9,340.21,113.45,340.68,112.15z"/>
			</g>
			<g>
				<path class="st1" d="M334.68,106.18c-0.64-1.01-1.6-1.77-2.61-2.39c-1.02-0.62-2.17-1.02-3.35-1.15
					c-1.18-0.14-2.39,0.02-3.51,0.4c-1.13,0.37-2.19,0.94-3.15,1.64c-1.92,1.4-3.55,3.17-5.36,4.72c-1.8,1.57-3.75,2.96-5.83,4.12
					c-2.08,1.2-4.45,1.75-6.79,2.14c-2.36,0.35-4.74,0.57-7.12,0.47c-4.77-0.19-9.43-1.84-13.38-4.49
					c3.95,2.64,8.62,4.27,13.38,4.44c2.38,0.09,4.76-0.14,7.11-0.49c2.34-0.39,4.69-0.95,6.75-2.15c2.08-1.15,4.03-2.53,5.83-4.09
					c1.81-1.54,3.44-3.3,5.38-4.7c0.96-0.7,2.03-1.27,3.16-1.64c1.13-0.38,2.34-0.54,3.53-0.39c1.19,0.14,2.33,0.55,3.35,1.17
					C333.09,104.4,334.04,105.17,334.68,106.18z"/>
			</g>
			<g>
				<path class="st1" d="M353.72,111.32c-0.67-0.87-1.6-1.54-2.66-1.8c-1.05-0.3-2.19-0.19-3.2,0.22c0.98-0.49,2.16-0.59,3.23-0.32
					C352.16,109.72,353.12,110.4,353.72,111.32z"/>
			</g>
			<g>
				<path class="st1" d="M345.23,122.25c-0.93,1.9-1.73,3.87-2.37,5.89c-0.65,2.02-1.1,4.09-1.43,6.18
					c-0.18,1.04-0.39,2.1-0.87,3.06c-0.47,0.96-1.16,1.81-2.05,2.4c-1.79,1.22-3.98,1.44-6.02,1.93c2.04-0.5,4.23-0.74,5.99-1.97
					c0.87-0.6,1.55-1.44,2.01-2.39c0.46-0.95,0.66-2,0.84-3.04c0.35-2.09,0.81-4.17,1.48-6.18
					C343.47,126.11,344.29,124.15,345.23,122.25z"/>
			</g>
			<g>
				<path class="st1" d="M338.53,103.11c0.15-1.97-0.79-3.95-2.31-5.18c-1.56-1.23-3.64-1.58-5.57-1.4
					c-1.96,0.23-3.74,1.17-5.53,1.95l-5.38,2.43c-3.6,1.57-7.25,3.11-11.11,3.95c-0.96,0.21-1.94,0.36-2.92,0.42
					c-0.98,0.07-1.97,0.03-2.94-0.17c-1.93-0.38-3.72-1.44-4.97-2.97c1.25,1.52,3.04,2.58,4.97,2.94c0.96,0.19,1.95,0.23,2.93,0.15
					c0.98-0.06,1.95-0.22,2.91-0.43c3.84-0.86,7.48-2.41,11.08-3.99l5.39-2.41c1.8-0.77,3.58-1.71,5.56-1.93
					c1.95-0.17,4.03,0.19,5.59,1.43C337.76,99.15,338.69,101.14,338.53,103.11z"/>
			</g>
			<g>
				<path class="st2" d="M350.5,111.17"/>
			</g>
			<g>
				<path class="st1" d="M350.3,125.44c1.52,3.07,2.82,6.39,2.85,9.87c-0.02,0.86-0.13,1.73-0.39,2.56
					c-0.29,0.81-0.68,1.6-1.26,2.25c-1.16,1.31-2.8,2.07-4.47,2.47c-1.68,0.41-3.42,0.51-5.15,0.48c-1.73-0.03-3.45-0.21-5.16-0.47
					c-3.41-0.53-6.78-1.35-10.07-2.4c-1.64-0.54-3.26-1.16-4.82-1.9c-1.57-0.73-3.07-1.59-4.55-2.47c-1.48-0.88-2.97-1.75-4.53-2.5
					c-1.55-0.75-3.16-1.37-4.8-1.92c-6.57-2.14-13.59-2.78-20.45-2.09c6.86-0.71,13.89-0.09,20.47,2.04
					c1.64,0.54,3.26,1.16,4.81,1.91c1.56,0.74,3.06,1.61,4.54,2.49c1.49,0.88,2.99,1.73,4.55,2.46c1.56,0.73,3.18,1.34,4.81,1.88
					c3.28,1.05,6.64,1.88,10.05,2.42c3.4,0.49,6.91,0.79,10.28,0.01c1.67-0.39,3.3-1.15,4.46-2.44c0.58-0.64,0.97-1.43,1.26-2.24
					c0.26-0.82,0.37-1.68,0.39-2.55C353.1,131.83,351.81,128.51,350.3,125.44z"/>
			</g>
		</g>
		<g>
			<polygon class="st1" points="276.56,129.35 227.03,129.4 177.49,129.35 227.03,129.3 			"/>
		</g>
		<g>
			<polygon class="st1" points="462.49,129.35 412.96,129.4 363.43,129.35 412.96,129.3 			"/>
		</g>
	</g>
</g>
<g id="logo">
	<g>
		<path class="st3" d="M346.27,65.16c0.36,2.02-0.99,3.95-3.02,4.31l-38.46,6.79c-2.02,0.36-3.95-0.99-4.31-3.02l-6.78-38.46
			c-0.36-2.02,0.99-3.95,3.02-4.31l38.46-6.79c2.02-0.36,3.95,0.99,4.31,3.02L346.27,65.16z"/>
		<g>
			<path class="st1" d="M314.1,58.78c-0.33,1.87-0.45,2.53-0.45,2.53l-1.61,0l0.21-1.18l0,0l0.14-0.78c-0.15,0-0.79,0-0.92,0
				c-0.13,0-0.39,0-0.51,0.01c-0.35,0.05-0.6,0.35-0.66,0.55c-0.14,0.45-0.17,0.66-0.3,1.4h-1.59c0.14-0.79,0.21-1.09,0.28-1.41
				c0.18-0.82,0.96-1.58,2.28-1.58c0.49,0,0.64,0,1.61,0c0.21-1.15,0-1.24-3.2-1.04l0.17-1.02c1.12-0.09,2.5-0.15,3.55-0.07
				C314.28,56.28,314.41,57.01,314.1,58.78z M308.19,56.87c-0.02,0.37-0.23,1.49-0.32,1.86c-0.23,0.89-0.44,2.32-2.23,2.51
				c-0.89,0.09-1.35,0.07-4.6,0.07c0,0,0.84-4.72,1.03-5.81c0,0-0.6,0-1.42,0l0.22-1.23c3.67-0.03,4.96-0.09,6.04,0.12
				C308.54,54.72,308.24,55.96,308.19,56.87z M303.79,55.5l-0.8,4.53c1.87,0,2.7,0.14,2.99-0.9c0.26-0.93,0.43-2.06,0.48-2.64
				C306.54,55.38,305.66,55.5,303.79,55.5z M315.88,56.26c0,0-0.88,5.03-0.89,5.05h1.61c0-0.02,0.71-4.06,0.71-4.06
				c1.51-0.09,1.82-0.1,1.55,1.36c0,0.02-0.47,2.68-0.47,2.69H320c0.01-0.03,0.44-2.47,0.48-2.7
				C320.96,55.93,320.19,56.01,315.88,56.26z M330.97,58.6l-0.06,0.32c-0.31,1.83-0.92,2.34-2.08,2.42
				c-0.28,0.02-0.59,0.04-0.8,0.04l0,0c0,0,0,0,0,0l0,0c-0.02,0-0.28,0-0.28,0c-0.22,0-0.49-0.02-0.76-0.04
				c-1.14-0.08-1.56-0.59-1.23-2.42l0.06-0.32c0.31-1.83,0.92-2.35,2.08-2.43c0.28-0.02,0.56-0.04,0.77-0.04c0,0,0.26,0,0.31,0
				c0,0,0,0,0,0c0,0,0.01,0,0.01,0l0,0c0.22,0,0.48,0.02,0.75,0.04C330.88,56.26,331.3,56.77,330.97,58.6z M328.8,57.17L328.8,57.17
				c0,0-0.32,0-0.32,0c-0.68,0-0.88,0.31-1.07,1.43l0,0l-0.06,0.32l0,0c-0.2,1.11-0.12,1.43,0.57,1.43c0,0,0.31,0,0.31,0l0,0
				c0.68,0,0.87-0.31,1.07-1.43l0,0l0.06-0.32h0C329.56,57.49,329.48,57.17,328.8,57.17z M341.28,58.6l-0.06,0.32
				c-0.31,1.83-0.92,2.34-2.08,2.42c-0.28,0.02-0.59,0.04-0.8,0.04l0,0c0,0,0,0,0,0l0,0c-0.02,0-0.28,0-0.28,0
				c-0.22,0-0.49-0.02-0.76-0.04c-1.14-0.08-1.56-0.59-1.23-2.42l0.06-0.32c0.31-1.83,0.92-2.35,2.08-2.43
				c0.28-0.02,0.56-0.04,0.77-0.04c0,0,0.26,0,0.31,0c0,0,0,0,0,0c0,0,0.01,0,0.01,0l0,0c0.22,0,0.48,0.02,0.75,0.04
				C341.19,56.26,341.61,56.77,341.28,58.6z M339.11,57.17L339.11,57.17c0,0-0.32,0-0.32,0c-0.68,0-0.88,0.31-1.07,1.43l0,0
				l-0.06,0.32l0,0c-0.2,1.11-0.12,1.43,0.57,1.43c0,0,0.31,0,0.31,0l0,0c0.68,0,0.87-0.31,1.06-1.43l0,0l0.06-0.32l0,0
				C339.87,57.49,339.79,57.17,339.11,57.17z M325.29,57.22l0.17-0.95c0,0-1.51,0-1.71,0l0.23-1.3h-1.59l-0.77,4.35
				c-0.31,2.01,0.64,2.01,1.82,2.05h1.12l0.18-1.02h-0.8c-0.23,0-0.55,0.01-0.69-0.21c-0.13-0.2-0.07-0.62-0.03-0.82
				c0,0,0.31-1.78,0.37-2.1C323.72,57.22,325.29,57.22,325.29,57.22z M335.58,57.22l0.17-0.95c0,0-1.51,0-1.71,0l0.23-1.3h-1.59
				l-0.77,4.35c-0.31,2.01,0.64,2.01,1.82,2.05h1.12l0.18-1.02h-0.8c-0.23,0-0.55,0.01-0.69-0.21c-0.13-0.2-0.07-0.62-0.03-0.82
				c0,0,0.31-1.78,0.37-2.1C334.01,57.22,335.58,57.22,335.58,57.22z"/>
			<g>
				<g>
					<path class="st1" d="M342.34,55.45l-0.22-0.34h-0.11v0.34h-0.19v-0.92h0.33c0.21,0,0.34,0.08,0.34,0.28
						c0,0.12-0.06,0.2-0.18,0.25l0,0.01l0.27,0.38H342.34z M342.13,54.66h-0.12v0.31h0.12c0.11,0,0.17-0.04,0.17-0.15
						C342.3,54.7,342.24,54.66,342.13,54.66z"/>
				</g>
				<g>
					<path class="st1" d="M341.16,55.03c0,0.54,0.44,0.99,0.99,0.99c0.54,0,0.99-0.44,0.99-0.99c0-0.54-0.44-0.99-0.99-0.99
						C341.6,54.05,341.16,54.49,341.16,55.03z M341.35,55.03c0-0.44,0.36-0.79,0.79-0.79c0.44,0,0.79,0.36,0.79,0.79
						s-0.36,0.79-0.79,0.79C341.7,55.83,341.35,55.47,341.35,55.03z"/>
				</g>
			</g>
		</g>
		<g>
			<path class="st4" d="M323.86,42.01l-1.09-6.13c-0.09-0.43-0.44-0.57-0.72-0.51l-6.43,1.12c-0.19,0.04-0.31,0.1-0.48,0.24
				c0,0-1.63,1.54-1.87,1.79c-0.24,0.24-0.39,0.57-0.32,1.04l1.24,7.03c0.09,0.44,0.47,0.56,0.74,0.52c0.27-0.04,6.6-1.15,6.93-1.22
				c0.34-0.07,0.67-0.3,0.91-0.75l0.98-2.1C323.93,42.62,323.94,42.53,323.86,42.01z M320.41,36.68c-0.18,0.15-0.69,0.32-1.14,0.38
				c-0.45,0.06-0.67,0-0.49-0.15c0.18-0.14,0.69-0.32,1.14-0.38C320.37,36.47,320.59,36.53,320.41,36.68z M319.38,36.41l-1.43,0.44
				l-1.03,0l1.42-0.44L319.38,36.41z M315.55,36.75l1.41-0.25l-0.43,0.45l-1.43,0.23L315.55,36.75z M314.96,46.36l-0.27-1.56
				l1.56-0.28l0.27,1.56L314.96,46.36z M316.21,44.07l-1.02-1.21l0.54-1.48l1.02,1.21L316.21,44.07z M317.67,41.56
				c-0.49,0.09-0.96-0.24-1.04-0.73c-0.09-0.49,0.24-0.96,0.73-1.04c0.49-0.09,0.96,0.24,1.04,0.73
				C318.49,41,318.16,41.47,317.67,41.56z M319.69,40.48l-1.22-1.45l1.87-0.33L319.69,40.48z M320.36,37.48l-1.39,0.03l1.79-0.54
				L320.36,37.48z M322.59,36.57l0.07,1.62l-0.44-1.1L322.59,36.57z M322.09,37.98c0.09-0.14,0.23,0.11,0.31,0.55
				c0.08,0.44,0.07,0.92-0.02,1.06c-0.09,0.14-0.23-0.11-0.31-0.55C321.99,38.59,322,38.12,322.09,37.98z M322.09,39.8l0.38,1.05
				l0.07,1.53l-0.38-1.04L322.09,39.8z M322.56,44.71l-0.26-1.49l0.28-0.57l0.26,1.46L322.56,44.71z"/>
			<g>
				<g>
				</g>
			</g>
		</g>
	</g>
</g>
<g id="person1">
	<g class="st5">
		<defs>
			<rect id="SVGID_1_" x="477" y="154" class="st5" width="142" height="206"/>
		</defs>
		<clipPath id="SVGID_2_">
			<use xlink:href="#SVGID_1_"  style="overflow:visible;"/>
		</clipPath>
		<g class="st6">
			<path class="st7" d="M503.27,215.53c1.14,8.43-0.83,12.85-2.95,15.35c-2.71,3.2-6.69,4.45-6.49,7.08
				c0.14,1.81,2.09,2.17,4.13,5.31c1.41,2.18,1.85,4.13,2.36,6.49c1.83,8.47-1.16,11.97,1.18,14.76c1.42,1.69,3.59,1.66,9.44,1.77
				c4.19,0.08,10.44,0.24,18.3,0.59c0.8,6.69,1.3,14.22,1.18,22.43c-0.21,14.49-2.27,27.07-4.72,37.19
				c2.41-3.17,5.33-6.59,8.85-10.04c6.23-6.1,12.47-10.48,17.71-13.58c-0.79-19.48-1.07-38.96-0.74-58.29
				c0.79-2.95,4.04-2.51,4.83-5.46c0.89,1.73-1.08-6.5-1.62-6.05c-1.24,1.01-10.03,0.25-10.73-0.44c-3.9-3.86-8.85-8.77-12.4-16.53
				c-1.85-4.03-4.13-10.63-4.13-10.63c-1.57-1.38-3.15-2.75-4.72-4.13C516.26,206.09,509.77,210.81,503.27,215.53z"/>
			<path class="st8" d="M528.07,198.12c-2.12,6.5-0.07,12.38,1.33,16.38c3.96,11.33,13.55,18.69,19.04,19.92
				c0.63,0.14,6.2,1.33,6.2,1.33c-1.03,2.95-2.07,5.9-3.1,8.85c-0.15,8.71-0.3,17.41-0.44,26.12c2.67,1.38,7.49,3.4,13.72,3.54
				c3.07,0.07,13.77,0.31,21.25-7.97c1.7-1.89,7.68-8.99,6.2-18.59c-0.91-5.92-4.21-9.87-5.76-11.51c1.52-1.63,3.59-4.27,4.87-7.97
				c2.59-7.47,0.21-14.21-2.21-20.81c-3.53-9.59-6.63-18.01-15.5-23.02c-8.49-4.8-17.12-3.57-20.37-3.1
				C550.61,181.68,532.48,184.6,528.07,198.12z"/>
			<path class="st9" d="M505.63,178.05c-6.54,6-11.12,11.68-14.17,15.94c-6.92,9.66-6.32,12.45-5.9,13.58
				c1.63,4.37,8.87,5.38,12.99,5.9c24.69,3.14,45.09-11.94,50.18-15.94c7.76-6.1,14.89-11.88,14.76-20.07
				c-0.11-6.5-4.75-12.1-8.85-14.76C543.58,155.54,523.72,161.49,505.63,178.05z"/>
			<path class="st9" d="M551.45,289.87c0.52,4.08,0.52,4.08,0.61,7.88c0.18,7.18-5.88,8.5-15.25,16.6
				c-3.45,2.99-6.35,5.11-11.11,12.17c1.2-6.04,0.27-7.97,2.4-11.71c0.71-1.25-7.16,5-11.15,10.53
				c-11.95,16.57-15.76,16.54-17.71,23.02c-1.06,3.54-2.61,12.43,7.08,26.56c24.4-0.79,48.8-1.57,73.2-2.36
				c1.38-4.89,8.64-31.28,5.9-46.63c-1.13-6.33-3.53-8.38-4.13-8.85c-4.99-3.98-11.54-0.3-14.76-4.13
				c-2.06-2.45,0.04-4.65-1.18-10.04C563.45,294.49,551.22,288.06,551.45,289.87z"/>
		</g>
	</g>
</g>
<g id="person2">
	<g class="st10">
		<defs>
			<rect id="SVGID_3_" x="542" y="125" class="st10" width="98" height="235"/>
		</defs>
		<clipPath id="SVGID_4_">
			<use xlink:href="#SVGID_3_"  style="overflow:visible;"/>
		</clipPath>
		<g class="st11">
			<path class="st1" d="M569.79,186.32c-0.74,1.47-1.41,3.81-0.72,7.42c1.6,1.04,3.19,2.07,4.79,3.11c-0.56,7.5-1.12,15-1.68,22.49
				c1.2-0.24,5.47-0.94,7.66,1.44c0.81,0.88,1.22,2.07,1.91,4.07c0.8,2.32,0.68,3.03,1.2,4.31c0.28,0.69,1.71,3.37,4.55,4.79
				c1.25,0.62,1.96,0.58,2.63,1.44c0.83,1.05,0.68,2.26,0.72,3.35c0.1,2.88,1.59,6.51,3.83,7.66c2.57,1.31,6.28-0.97,7.42-1.68
				c6.77-4.16,22.63-11.88,45.47-22.49c-9.44-11.95-10.85-20.32-10.29-25.84c0.24-2.41,1.15-7.05-0.96-12.2
				c-0.47-1.14-2.32-5.46-5.98-7.9c-5.43-3.62-11.77-1.08-21.24,1.11C585.07,182.93,573.62,178.67,569.79,186.32z"/>
			<path d="M601.71,178.42c0.92,0.84,2.32,2.1,4.07,3.59c5.11,4.34,6.77,5.14,8.38,7.42c1.12,1.59,2.38,4.13,2.63,8.14
				c2.23-0.8,4.47-1.6,6.7-2.39c-0.52-1.43-1.19-3.66-1.44-6.46c-0.28-3.29-0.71-8.22,2.15-10.53c1.84-1.48,4.65-1.57,6.46-0.96
				c5.33,1.82,7.92,11.78,6.94,24.65c4.95-0.88,9.89-1.75,14.84-2.63c-0.08-9.97-0.16-19.94-0.24-29.91c0.08-1.58,0-4.65-1.68-7.9
				c-2.9-5.65-8.37-7.52-9.57-7.9C627.88,161.83,614.8,170.13,601.71,178.42z"/>
			<path class="st12" d="M634.74,126.08c-4.49-0.66-9.35-1.08-14.54-1.08c-24.94-0.01-44.69,9.44-56.53,16.69
				c1.44,12.74,1.08,9.69,2.51,22.43c25.07-10.59,42.24-13.66,77.89-16.33C639.76,136.67,639.04,137.2,634.74,126.08z"/>
			<path class="st12" d="M650.35,163.59c-3.48,1.04-17.94,5-47.2,16.51c0,0-26.37,10.35-49.89,14.72c-0.75,0.14-1.61,0.25-2.57,0.3
				c-1,0.05-1.91,0.01-2.69-0.06c6.72-4.39,13.44-8.77,20.16-13.16c29.49-8.38,54.5-16.75,83.99-25.13
				c4.58-1.41,11.49-2.15,11.49-2.15l0,0c0,0,5.05-0.1,5.2,0.54C669.11,156.3,653.3,162.71,650.35,163.59z"/>
			<path class="st13" d="M644.07,147.79l6.09,10.81c0,0-16.8,4.77-25.95,7.37s-51.57,15.11-56.06,15.92l-1.97-17.77
				c0,0,24.29-11.31,54.89-14.22C642.64,147.85,644.07,147.79,644.07,147.79z"/>
			<path class="st12" d="M667.96,185.12c-13.66,4.55-30.56,11.82-48.1,23.69c-8.44,5.72-15.71,11.61-21.9,17.23
				c6.94,8.97,13.88,17.95,20.82,26.92c-8.56,5.86-22.98,17.48-33.74,36.97c-3.47,6.28-12.67,23.36-13.28,45.23
				c0,0-0.04,1.34,0.36,25.84c44.74,36.07,103.74,31.99,132.52,0c17.93-19.93,22.79-55.16,15.36-83.27
				c-2.46-9.3-4.45-14.9-7.18-18.66c-6.27-8.65-13.41-14.35-18.31-16.75c-7.31-3.59-11.88-6.97-15.08-8.61
				C671.97,229.86,677.29,224.84,667.96,185.12z"/>
		</g>
	</g>
</g>
<g id="horse1">
	<g class="st5">
		<defs>
			<rect id="SVGID_5_" y="144" class="st5" width="198" height="179"/>
		</defs>
		<clipPath id="SVGID_6_">
			<use xlink:href="#SVGID_5_"  style="overflow:visible;"/>
		</clipPath>
		<g class="st14">
			<g>
				<path class="st7" d="M192.02,269c-2.39-7.69-13.57-19.74-14.22-20.45c-6.9-7.45-15.75-13.19-21.07-21.96
					c-1.79-4.25-4.87-7.78-7.6-11.63c-0.04-0.06-0.08-0.1-0.15-0.14c-0.95-0.62-7.57-6.33-8-6.59c-0.26-0.16,0.5,1.12,1.52,2.78
					c1.67,2.72,4.04,6.47,3.83,6.68c-3.08-1.52-9.25-5.91-15.29-10.33c-7.23-5.29-9.57-9.54-9.61-9.5
					c-0.12,0.12,2.87,8.32,4.45,10.66c0.2,0.46,0.5,0.94,0.86,1.43l-4.14-2.93l-2.29-1.95l-0.97-0.83l-0.65-0.58l-0.73-0.65
					l-0.77-0.68l-0.88-1.11l-0.59-0.96l-0.4-1.07l-0.22-0.77l-0.02-0.56l0.04-0.84c-1.99,2.5-0.4,6.28,0.37,8.54
					c1.38,4.04,3.7,6,3.7,6.9c-1.95-0.53-3.76-1.04-5.85-1.99c-1.22-0.56-3.13-1.02-3.98-1.64c-0.02,0.06-0.83-0.41-1.61-1.11
					c-0.36-0.33-0.81-0.7-1.15-1.07c-0.79-0.85-1.27-1.77-1.28-1.72c-0.01,0.03,0.2,0.88,0.44,1.79c0.2,0.73,0.95,1.8,1.05,1.98
					c0.27,0.4,0.69,0.83,1.04,1.13c0.61,0.54,1.28,1.03,1.99,1.4c0.34,0.18,1.41,0.62,1.67,0.88l10.12,5.5
					c-1.86-0.16-3.42-0.93-5.03-1.58c-1.78-0.73-3.56-1.57-5.41-1.95c-1.45-0.3-3,0.03-4.49,0.09c0.69,0.85,1.31,1.61,2.48,3.04
					c-5.83-1.54-10.69-3.6-16.09-2.46c4.13,2.96,7.91,5.67,11.68,8.38c-0.13,0.17-0.25,0.34-0.38,0.51
					c-4.27-1.95-8.54-3.89-12.81-5.84c-1-0.32-2.5-0.94-3.88-1.58c1.23,0.92,5.93,4.42,7.16,5.34c-1.84-0.45-5.25-1.9-5.61-2.03
					c-4.64-1.72-9.58-4.21-13.61-7.42c0.08,0.18,0.17,0.36,0.24,0.55c1.63,4.7,5.87,6.75,8.43,10.83
					c-4.37-1.97-8.14-3.63-11.87-5.38c-0.45-0.21-0.91-0.53-1.37-0.93c-0.02,0.13-0.06,0.26-0.08,0.39c0,0.2-0.03,0.4-0.04,0.59
					c1.07,1.94,2.73,3.53,3.59,5.68c0.12,0.31,0.08,0.6-0.03,0.86c0,0.01,0,0.02,0.01,0.03c0.08,0.22,0.08,0.45-0.01,0.7
					c-0.1,0.51-0.35,0.98-0.7,1.38c-0.89,1.02-1.93,0.91-3.04,1.42c-0.02,0.01-0.04,0.01-0.07,0.02c-0.01,0.01-0.01,0.01-0.02,0.01
					c-0.02,0.02-0.03,0.02-0.05,0.04c0.04,0.04,0.08,0.07,0.13,0.11c-2.42,1.11-4.75,1.5-7.08,1.32
					C73.71,232.33,0.78,208.05,0,207.8V323c0.92-0.77,79.51-26.38,83.74-29.8c21.81-17.61,23.84-18.22,28.64-24.73
					c4.12-5.58,12.92-12.17,13.65-10.42c1.97,4.71,6.07,7.07,7.99,8.17c4.79,2.75,7.09,0.34,14.93,1.61
					c3.99,0.64,10.48,1.69,16.45,6.1c6.99,5.16,9.39,12.07,13.41,11.24c1-0.21,2.39-0.8,2.74-1.93c0.65-2.06-4.1-4.6-3.66-5.46
					c0.28-0.54,2.34,0,3.56,0.32c2.07,0.55,2.71,1.11,4.06,0.96c0.84-0.09,1.4-0.4,2.23-0.86c1.56-0.86,3.51-1.92,4.37-4.18
					C192.46,273.14,192.82,271.58,192.02,269z"/>
				<g>
					<g>
						<path class="st1" d="M45.63,230.47l-11.08-17.84c0.23-4.32-0.87-15.07-0.64-19.39c0,0-7.39-14.51-12.56-24.18
							c-1.72,0.11-8.12-0.84-12.14,2.3c-1.2,0.94-5.02,4.65-6.32,10.28c-1.27,5.46,1.18,13.11,2.87,16.77
							c2.51,5.46,6.85,16.88,17.88,31.56c0.89,1.18,1.67,2.19,2.28,2.97c-0.05,0.08-11.56,0.38-11.61,0.45
							c0.56,3.87,2.14,7.99,3.17,10.64c0.56,1.46,23.57-0.88,25.07-0.54C47.22,240.29,48.52,235.06,45.63,230.47z"/>
						<path class="st1" d="M24.9,232.41l0.01,0.08c0.01,0.01,0.01,0.01,0.02,0.02C24.92,232.48,24.91,232.45,24.9,232.41z"/>
					</g>
					<g>
						<path class="st9" d="M14.05,165.49c-1.01-0.89,2.55,3.83,2.67,7.83c0.14,4.32,5.02,7.92,8.86,12.4
							c6.93,8.07,7.79,5.94,13.9,12.28c8.93,9.26,13.71,9.1,24.45,5.36c10.17-3.54,19.27-12.37,19.27-12.38c0.11-0.03,0,0,1.8-2.32
							c0.76-0.98,1.09-1.77,1.26-2.52c-0.87-1.55-1.31-4.29-2.01-6.88c-1.09-4.01-1.58-5.32-1.37-7.61
							c-0.63-0.1-2.46-1.19-4.73-2.38c-0.35-0.24-0.77-0.45-1.25-0.65c-0.01-0.01-0.03-0.01-0.04-0.02c0,0,0,0,0,0
							c-5.39-0.47-16.71-2.75-22.74-2.76C38.64,165.84,26.06,158.86,14.05,165.49z"/>
						<path class="st7" d="M109.22,174.98c0.12,1.02,0.03,3.04-0.14,7.07c0,0.1-0.08,1.78-0.08,1.78l-0.5,0.38
							c-2.73-0.82-2.76-0.77-2.76-0.77c-0.38,0.23-0.42,0.55-0.89,1.68c-0.74,1.81-4.37,6.06-4.87,6.56
							c-1.29,1.28-7.9-4.75-8.67-7.26c-0.67-2.18-4.61,0.61-5.68,0.19c-1.31-2.88-1.19-4.66-2.17-8.29
							c-0.3-1.12-0.52-3.65-0.96-4.71c9.24-6.5,18.91-7.31,23.08-3.2C108.83,171.62,109.22,174.98,109.22,174.98z"/>
						<path class="st15" d="M112.05,170.16c0.23-1.28-0.21-3.69-0.58-6.71c-1.17-9.5-6.71-13.49-14.52-13.42
							c-7.62,0.06-13.2,4.2-14.14,9.33c-0.58,3.18-0.67,9.62-0.48,10.97c5.59,0.73,12.57,2.52,18.72,2.96
							c4.89,0.35,10.38,0.59,14.93,0.7C115.63,173.54,113.32,170.77,112.05,170.16z"/>
						<path class="st9" d="M65.7,179.89c1.16-0.32,5.15-1.4,8.21,0.46c0.02,0.01,0.05,0.03,0.09,0.06c0.69,0.43,4.05,2.67,4.12,6
							c0.03,1.28-0.43,3-5.31,7.39c0,0-5.04,4.54-14.56,10.46c-0.77,0.43-1.55,0.86-2.32,1.3c1.6,2.45,3.19,4.22,4.37,5.39
							c2.79,2.77,5.59,4.49,7.65,5.76c0.9,0.56,2.08,1.38,2.59,1.66c-1.1,1.52-2.62,2.66-3.72,4.2c-0.67,0.93-0.96,2.34-1.62,3.27
							c-3.1-0.46-7.17-1.76-11.19-3.26c-10.04-3.73-12.84-6.22-13.96-7.62c-1.11-1.39-2.24-2.81-2.67-4.95
							c-1.04-5.14,2.87-9.83,7.6-15.33C44.97,194.67,55.22,182.74,65.7,179.89z"/>
						<path class="st15" d="M72.09,219.18c6.17,1.25,11.1,2.76,14.68,4.02c3.21,1.13,5.78,2.21,6.37,4.48
							c0.45,1.72-0.44,3.36-1.04,4.47c-1.68,3.12-5.32,5.9-7.31,4.87c-0.77-0.4-1.25-1.76-2.22-4.48c-0.66-1.85-0.3-2.69-1.02-3.34
							c-0.82-0.74-1.84-0.39-3.73-0.37c-1,0.01-2.37-0.23-5.11-0.73c-1.93-0.35-4.57-0.93-7.74-1.99c0.34-0.81,3.58-8.46,5.99-7.93
							C71.31,218.26,71.7,218.51,72.09,219.18z"/>
					</g>
				</g>
			</g>
			<path class="st13" d="M155.19,241.65c0.27-0.37-1.84-2.71-2.75-4.31c-1.15-2.01-1.74-3.02-2.55-3.15
				c-0.6-0.09-1.21,0.26-2.43,0.97c-0.89,0.52-1.34,0.78-1.4,1.1c-0.23,1.22,3.1,2.8,4.73,3.43
				C151.83,240.08,154.83,242.14,155.19,241.65z"/>
			<path class="st13" d="M187.72,271.52c-0.28-0.62-1.85-0.76-2.8,0c-0.1,0.08-0.47,0.39-0.7,0.98c-0.71,1.83,0.75,4.3,1.32,4.18
				c0.26-0.05,0.15-0.62,0.54-1.8C186.81,272.72,188,272.13,187.72,271.52z"/>
		</g>
	</g>
</g>
<g id="horse2">
	<g class="st16">
		<defs>
			<rect id="SVGID_7_" y="180" class="st16" width="194" height="180"/>
		</defs>
		<clipPath id="SVGID_8_">
			<use xlink:href="#SVGID_7_"  style="overflow:visible;"/>
		</clipPath>
		<g class="st17">
			<path class="st1" d="M191.37,334.58c-3.03-9.83-17.16-25.25-17.99-26.16c-8.73-9.53-19.92-16.88-26.65-28.09
				c-2.26-5.43-6.17-9.95-9.61-14.88c-0.06-0.08-0.1-0.13-0.18-0.18c-1.21-0.8-9.58-8.1-10.12-8.43c-0.33-0.2,0.63,1.43,1.92,3.56
				c2.11,3.48,5.11,8.27,4.84,8.55c-3.89-1.94-11.7-7.56-19.34-13.22c-9.14-6.77-12.1-12.21-12.15-12.16
				c-0.15,0.15,3.63,10.65,5.62,13.64c0.25,0.59,0.63,1.2,1.09,1.83l-5.24-3.74l-2.9-2.49l-1.23-1.06l-0.82-0.74l-0.92-0.83
				l-0.97-0.88l-1.11-1.42l-0.75-1.22l-0.51-1.36l-0.27-0.98l-0.02-0.72l0.05-1.07c-2.52,3.2-0.51,8.03,0.46,10.93
				c1.74,5.16,4.68,7.68,4.68,8.83c-2.46-0.68-4.76-1.33-7.4-2.54c-1.55-0.71-3.97-1.31-5.03-2.1c-0.02,0.07-1.06-0.53-2.03-1.42
				c-0.46-0.42-1.02-0.89-1.46-1.37c-1-1.09-1.6-2.27-1.63-2.19c-0.01,0.04,0.25,1.13,0.56,2.28c0.25,0.93,1.21,2.3,1.33,2.53
				c0.34,0.51,0.87,1.06,1.31,1.45c0.77,0.69,1.62,1.32,2.51,1.79c0.42,0.23,1.78,0.8,2.11,1.12l12.81,7.03
				c-2.35-0.21-4.33-1.19-6.36-2.02c-2.25-0.93-4.51-2.01-6.85-2.49c-1.83-0.38-3.79,0.04-5.69,0.11c0.88,1.09,1.66,2.06,3.14,3.89
				c-7.37-1.97-13.52-4.6-20.35-3.14c5.23,3.79,10,7.25,14.78,10.72c-0.16,0.22-0.32,0.43-0.48,0.65c-5.4-2.49-10.8-4.98-16.21-7.47
				c-1.27-0.41-3.16-1.2-4.91-2.02c1.56,1.18,7.5,5.65,9.05,6.83c-2.33-0.58-6.64-2.43-7.1-2.6c-5.87-2.2-12.12-5.39-17.22-9.49
				c0.1,0.24,0.22,0.47,0.3,0.71c2.06,6.02,7.43,8.64,10.67,13.86c-5.52-2.52-10.29-4.65-15.02-6.88c-0.57-0.27-1.15-0.68-1.73-1.19
				c-0.02,0.17-0.08,0.33-0.1,0.5c0,0.25-0.04,0.51-0.05,0.76c1.35,2.49,3.45,4.51,4.54,7.26c0.16,0.4,0.1,0.77-0.04,1.1
				c0,0.01,0,0.03,0.01,0.04c0.1,0.28,0.1,0.58-0.01,0.9c-0.13,0.65-0.45,1.26-0.88,1.76c-1.12,1.31-2.44,1.16-3.85,1.81
				c-0.03,0.01-0.06,0.01-0.08,0.02c-0.01,0.01-0.01,0.01-0.02,0.02c-0.02,0.02-0.04,0.03-0.06,0.05c0.05,0.05,0.1,0.1,0.16,0.15
				c-3.07,1.42-6.01,1.91-8.96,1.69c12.7,3.3-101.61-29.55-102.59-29.87l94.06,139.38c1.16-0.99,28.56-23.98,33.92-28.35
				C82,343.01,84.56,342.23,90.64,333.9c5.21-7.14,16.34-15.57,17.27-13.32c2.49,6.03,7.68,9.04,10.1,10.45
				c6.06,3.52,8.96,0.44,18.89,2.05c5.04,0.82,13.26,2.16,20.81,7.81c8.84,6.6,11.88,15.44,16.96,14.38
				c1.26-0.26,3.02-1.02,3.47-2.46c0.82-2.63-5.18-5.89-4.63-6.98c0.35-0.69,2.96,0,4.5,0.41c2.61,0.7,3.43,1.42,5.14,1.23
				c1.06-0.12,1.77-0.51,2.83-1.1c1.98-1.1,4.45-2.46,5.52-5.34C191.93,339.87,192.38,337.88,191.37,334.58z"/>
			<g>
				<g>
					<path class="st1" d="M6.2,285.29l-14.01-22.82c0.29-5.52-1.1-19.28-0.81-24.8c0,0-9.35-18.56-15.88-30.93
						c-2.18,0.14-10.27-1.07-15.36,2.94c-1.52,1.2-6.35,5.95-8,13.15c-1.6,6.99,1.5,16.77,3.63,21.46
						c3.18,6.98,8.67,21.59,22.62,40.37c1.13,1.51,2.12,2.8,2.88,3.79c-0.06,0.1-14.62,0.49-14.68,0.57
						c0.71,4.95,2.71,10.22,4.01,13.61c0.71,1.86,29.82-1.13,31.71-0.69C8.2,297.85,9.85,291.16,6.2,285.29z"/>
					<path class="st1" d="M-20.03,287.77l0.02,0.11c0.01,0.01,0.02,0.01,0.03,0.02C-20,287.86-20.01,287.82-20.03,287.77z"/>
				</g>
				<g>
					<path class="st7" d="M-33.74,202.18c-1.28-1.14,3.22,4.91,3.38,10.01c0.17,5.53,6.35,10.14,11.21,15.86
						c8.77,10.32,9.85,7.6,17.58,15.71c11.3,11.85,17.34,11.64,30.93,6.85c12.87-4.53,24.37-15.82,24.37-15.84
						c0.14-0.04,0,0,2.28-2.97c0.97-1.26,1.38-2.26,1.59-3.22c-1.1-1.98-1.65-5.49-2.54-8.8c-1.37-5.12-1.99-6.81-1.74-9.73
						c-0.8-0.13-3.12-1.52-5.98-3.05c-0.44-0.3-0.97-0.58-1.58-0.83c-0.02-0.01-0.03-0.02-0.05-0.03c0,0,0,0,0,0
						c-6.82-0.61-21.14-3.52-28.76-3.53C-2.65,202.62-18.56,193.69-33.74,202.18z"/>
					<path class="st1" d="M86.64,214.31c0.15,1.3,0.04,3.89-0.18,9.05c-0.01,0.12-0.1,2.28-0.1,2.28l-0.64,0.48
						c-3.45-1.05-3.49-0.98-3.49-0.98c-0.49,0.3-0.54,0.7-1.13,2.15c-0.94,2.31-5.53,7.76-6.16,8.39c-1.63,1.64-10-6.08-10.97-9.29
						c-0.84-2.79-5.83,0.78-7.18,0.24c-1.65-3.69-1.51-5.96-2.75-10.6c-0.38-1.43-0.66-4.67-1.22-6.02
						c11.69-8.31,23.91-9.35,29.19-4.1C86.14,210.01,86.64,214.31,86.64,214.31z"/>
					<path class="st7" d="M90.22,208.15c0.29-1.64-0.27-4.72-0.74-8.58c-1.48-12.15-8.49-17.25-18.36-17.17
						c-9.64,0.08-16.7,5.37-17.89,11.94c-0.74,4.07-0.85,12.31-0.6,14.04c7.07,0.93,15.9,3.23,23.68,3.79
						c6.18,0.45,13.13,0.75,18.89,0.9C94.75,212.47,91.82,208.93,90.22,208.15z"/>
					<path class="st1" d="M31.58,220.59c1.47-0.41,6.52-1.8,10.38,0.58c0.02,0.01,0.06,0.04,0.12,0.07
						c0.87,0.55,5.12,3.42,5.21,7.68c0.03,1.64-0.54,3.84-6.72,9.46c0,0-6.38,5.8-18.41,13.38c-0.98,0.55-1.96,1.11-2.94,1.66
						c2.02,3.14,4.03,5.39,5.52,6.89c3.53,3.54,7.07,5.75,9.68,7.37c1.14,0.71,2.22,1.64,2.87,2c-1.4,1.94-2.91,3.53-4.31,5.5
						c-0.85,1.2-1.33,2.98-2.17,4.18c-3.92-0.59-8.95-2.25-14.04-4.16c-12.7-4.77-16.24-7.95-17.66-9.75
						c-1.4-1.78-2.83-3.59-3.38-6.33c-1.32-6.58,3.63-12.57,9.61-19.61C5.36,239.5,18.33,224.24,31.58,220.59z"/>
					<path class="st15" d="M39.66,270.86c7.8,1.6,14.05,3.54,18.57,5.14c4.06,1.44,7.32,2.82,8.06,5.74c0.56,2.2-0.55,4.3-1.31,5.72
						c-2.13,3.99-6.73,7.55-9.24,6.22c-0.98-0.51-1.59-2.25-2.81-5.73c-0.83-2.36-0.38-3.45-1.29-4.27
						c-1.04-0.94-2.33-0.5-4.72-0.47c-1.27,0.02-3-0.3-6.47-0.93c-2.44-0.44-5.78-1.2-9.79-2.55c0.43-1.03,4.52-10.83,7.58-10.14
						C38.68,269.67,39.18,269.99,39.66,270.86z"/>
				</g>
			</g>
			<path class="st13" d="M144.79,299.59c0.34-0.47-2.32-3.47-3.47-5.51c-1.46-2.58-2.21-3.87-3.23-4.03
				c-0.76-0.12-1.53,0.33-3.07,1.24c-1.13,0.67-1.7,1-1.77,1.41c-0.29,1.56,3.92,3.59,5.98,4.38
				C140.54,297.59,144.34,300.22,144.79,299.59z"/>
			<path class="st13" d="M185.94,337.8c-0.36-0.79-2.34-0.97-3.54,0c-0.12,0.1-0.59,0.5-0.88,1.26c-0.89,2.34,0.95,5.49,1.67,5.35
				c0.33-0.07,0.19-0.79,0.69-2.31C184.78,339.34,186.29,338.58,185.94,337.8z"/>
		</g>
	</g>
</g>
</svg>
