<?xml version="1.0" encoding="utf-8"?>
<!-- Generator: Adobe Illustrator 23.0.3, SVG Export Plug-In . SVG Version: 6.00 Build 0)  -->
<svg version="1.1" id="Layer_1" xmlns="http://www.w3.org/2000/svg" xmlns:xlink="http://www.w3.org/1999/xlink" x="0px" y="0px"
	 viewBox="0 0 360 640" style="enable-background:new 0 0 360 640;" xml:space="preserve">
<style type="text/css">
	.st0{fill:#121F29;}
	.st1{fill:#FFFFFF;}
	.st2{font-family:'Raleway-Light';}
	.st3{font-size:12px;}
	.st4{fill:#DC5F11;}
	.st5{fill:#FEB700;}
	.st6{fill:none;stroke:#FFFFFF;stroke-width:2;stroke-miterlimit:10;}
	.st7{fill:none;}
</style>
<g id="background">
	<rect x="1.2" y="0" class="st0" width="360" height="640"/>
</g>
<g id="text">
	<text transform="matrix(1 0 0 1 124.5747 412.8398)" class="st1 st2 st3">Change your phone</text>
	<text transform="matrix(1 0 0 1 125.8747 427.2398)" class="st1 st2 st3">to landscape mode</text>
</g>
<g id="logo">
	<g>
		<path class="st4" d="M206.6,64.8c0.4,2-1,4-3,4.3L165,75.9c-2,0.4-4-1-4.3-3l-6.8-38.6c-0.4-2,1-4,3-4.3l38.6-6.8c2-0.4,4,1,4.3,3
			L206.6,64.8z"/>
		<g>
			<path class="st1" d="M174.3,58.4c-0.3,1.9-0.4,2.5-0.4,2.5h-1.6l0.2-1.2l0,0l0.1-0.8c-0.1,0-0.8,0-0.9,0c-0.1,0-0.4,0-0.5,0
				c-0.4,0-0.6,0.3-0.7,0.5c-0.1,0.5-0.2,0.7-0.3,1.4h-1.6c0.1-0.8,0.2-1.1,0.3-1.4c0.2-0.8,1-1.6,2.3-1.6c0.5,0,0.6,0,1.6,0
				c0.2-1.2,0-1.2-3.2-1l0.2-1c1.1-0.1,2.5-0.2,3.6-0.1C174.5,55.9,174.6,56.6,174.3,58.4z M168.4,56.5c0,0.4-0.2,1.5-0.3,1.9
				c-0.2,0.9-0.4,2.3-2.2,2.5c-0.9,0.1-1.4,0.1-4.6,0.1c0,0,0.8-4.7,1-5.8c0,0-0.6,0-1.4,0l0.2-1.2c3.7,0,5-0.1,6.1,0.1
				C168.7,54.3,168.4,55.6,168.4,56.5z M163.9,55.1l-0.8,4.5c1.9,0,2.7,0.1,3-0.9c0.3-0.9,0.4-2.1,0.5-2.6
				C166.7,55,165.8,55.1,163.9,55.1z M176.1,55.9c0,0-0.9,5-0.9,5.1h1.6c0,0,0.7-4.1,0.7-4.1c1.5-0.1,1.8-0.1,1.6,1.4
				c0,0-0.5,2.7-0.5,2.7h1.6c0,0,0.4-2.5,0.5-2.7C181.2,55.5,180.4,55.6,176.1,55.9z M191.2,58.2l-0.1,0.3c-0.3,1.8-0.9,2.3-2.1,2.4
				c-0.3,0-0.6,0-0.8,0l0,0l0,0l0,0c0,0-0.3,0-0.3,0c-0.2,0-0.5,0-0.8,0c-1.1-0.1-1.6-0.6-1.2-2.4l0.1-0.3c0.3-1.8,0.9-2.3,2.1-2.4
				c0.3,0,0.6,0,0.8,0c0,0,0.3,0,0.3,0l0,0h0l0,0c0.2,0,0.5,0,0.8,0C191.1,55.9,191.6,56.4,191.2,58.2z M189.1,56.8L189.1,56.8h-0.3
				c-0.7,0-0.9,0.3-1.1,1.4l0,0l-0.1,0.3l0,0c-0.2,1.1-0.1,1.4,0.6,1.4c0,0,0.3,0,0.3,0l0,0c0.7,0,0.9-0.3,1.1-1.4l0,0l0.1-0.3l0,0
				C189.8,57.1,189.7,56.8,189.1,56.8z M201.6,58.2l-0.1,0.3c-0.3,1.8-0.9,2.3-2.1,2.4c-0.3,0-0.6,0-0.8,0l0,0l0,0l0,0
				c0,0-0.3,0-0.3,0c-0.2,0-0.5,0-0.8,0c-1.1-0.1-1.6-0.6-1.2-2.4l0.1-0.3c0.3-1.8,0.9-2.3,2.1-2.4c0.3,0,0.6,0,0.8,0
				c0,0,0.3,0,0.3,0l0,0h0l0,0c0.2,0,0.5,0,0.8,0C201.5,55.9,201.9,56.4,201.6,58.2z M199.4,56.8L199.4,56.8h-0.3
				c-0.7,0-0.9,0.3-1.1,1.4l0,0l-0.1,0.3l0,0c-0.2,1.1-0.1,1.4,0.6,1.4c0,0,0.3,0,0.3,0l0,0c0.7,0,0.9-0.3,1.1-1.4l0,0l0.1-0.3l0,0
				C200.1,57.1,200.1,56.8,199.4,56.8z M185.5,56.8l0.2-1c0,0-1.5,0-1.7,0l0.2-1.3h-1.6l-0.8,4.4c-0.3,2,0.6,2,1.8,2.1h1.1l0.2-1
				h-0.8c-0.2,0-0.6,0-0.7-0.2c-0.1-0.2-0.1-0.6,0-0.8c0,0,0.3-1.8,0.4-2.1C183.9,56.8,185.5,56.8,185.5,56.8z M195.9,56.8l0.2-1
				c0,0-1.5,0-1.7,0l0.2-1.3h-1.6l-0.8,4.4c-0.3,2,0.6,2,1.8,2.1h1.1l0.2-1h-0.8c-0.2,0-0.6,0-0.7-0.2c-0.1-0.2-0.1-0.6,0-0.8
				c0,0,0.3-1.8,0.4-2.1C194.3,56.8,195.9,56.8,195.9,56.8z"/>
			<g>
				<g>
					<path class="st1" d="M202.6,55.1l-0.2-0.3h-0.1v0.3h-0.2v-0.9h0.3c0.2,0,0.3,0.1,0.3,0.3c0,0.1-0.1,0.2-0.2,0.3v0l0.3,0.4
						H202.6z M202.4,54.3h-0.1v0.3h0.1c0.1,0,0.2,0,0.2-0.2C202.6,54.3,202.5,54.3,202.4,54.3z"/>
				</g>
				<g>
					<path class="st1" d="M201.4,54.7c0,0.5,0.4,1,1,1s1-0.4,1-1c0-0.5-0.4-1-1-1C201.9,53.7,201.4,54.1,201.4,54.7z M201.6,54.7
						c0-0.4,0.4-0.8,0.8-0.8s0.8,0.4,0.8,0.8s-0.4,0.8-0.8,0.8C202,55.4,201.6,55.1,201.6,54.7z"/>
				</g>
			</g>
		</g>
		<g>
			<path class="st5" d="M184.1,41.6l-1.1-6.2c-0.1-0.4-0.4-0.6-0.7-0.5l-6.4,1.1c-0.2,0-0.3,0.1-0.5,0.2c0,0-1.6,1.5-1.9,1.8
				s-0.4,0.6-0.3,1l1.2,7c0.1,0.4,0.5,0.6,0.7,0.5s6.6-1.2,6.9-1.2c0.3-0.1,0.7-0.3,0.9-0.8l1-2.1C184.2,42.2,184.2,42.1,184.1,41.6
				z M180.6,36.2c-0.2,0.2-0.7,0.3-1.1,0.4s-0.7,0-0.5-0.2s0.7-0.3,1.1-0.4C180.6,36,180.8,36.1,180.6,36.2z M179.6,36l-1.4,0.4h-1
				l1.4-0.4H179.6z M175.8,36.3l1.4-0.3l-0.4,0.5l-1.4,0.2L175.8,36.3z M175.1,45.9l-0.3-1.6l1.6-0.3l0.3,1.6L175.1,45.9z
				 M176.4,43.7l-1-1.2l0.5-1.5l1,1.2L176.4,43.7z M177.9,41.1c-0.5,0.1-1-0.2-1.1-0.7c-0.1-0.5,0.2-1,0.7-1c0.5-0.1,1,0.2,1.1,0.7
				C178.7,40.6,178.4,41,177.9,41.1z M179.9,40l-1.2-1.5l1.9-0.3L179.9,40z M180.6,37l-1.4,0l1.8-0.5L180.6,37z M182.8,36.1l0.1,1.6
				l-0.4-1.1L182.8,36.1z M182.3,37.5c0.1-0.1,0.2,0.1,0.3,0.5c0.1,0.5,0.1,0.9,0,1.1c-0.1,0.1-0.2-0.1-0.3-0.5
				C182.2,38.1,182.2,37.7,182.3,37.5z M182.3,39.4l0.4,1l0.1,1.5l-0.4-1L182.3,39.4z M182.8,44.3l-0.3-1.5l0.3-0.6l0.3,1.5
				L182.8,44.3z"/>
		</g>
	</g>
</g>
<g id="phone">
	<g>
		<path class="st1" d="M167.6,253.1c-1.4,0-2.8,0.6-3.8,1.6c-1,1-1.6,2.4-1.6,3.8v66.9c0,1.4,0.6,2.8,1.6,3.8c1,1,2.4,1.6,3.8,1.6
			h27.1c1.4,0,2.8-0.6,3.8-1.6c1-1,1.6-2.4,1.6-3.8v-67c0-1.4-0.6-2.8-1.6-3.8c-1-1-2.4-1.6-3.8-1.6L167.6,253.1L167.6,253.1z
			 M178.3,256.7C178.3,256.7,178.3,256.7,178.3,256.7c0.1,0,0.1,0,0.1,0h5.4c0.5,0,0.9,0.4,0.9,0.9s-0.4,0.9-0.9,0.9c0,0,0,0,0,0
			h-5.4c-0.5,0-0.9-0.3-1-0.8C177.4,257.2,177.8,256.8,178.3,256.7L178.3,256.7z M164,262.1h34.4V321H164V262.1z M181.1,322.8
			c1.5,0,2.7,1.2,2.7,2.7c0,1.5-1.2,2.7-2.7,2.7s-2.7-1.2-2.7-2.7C178.4,324,179.7,322.8,181.1,322.8z"/>
	</g>
</g>
<g id="arrows">
	<g>
		<g>
			<path class="st6" d="M98.3,281c7.1-40.4,42.3-71,84.7-71c47.5,0,86,38.5,86,86s-38.5,86-86,86c-41.1,0-75.5-28.9-84-67.5"/>
			<g>
				<polygon class="st1" points="108.6,319 107.5,320.7 99.3,315.3 94.4,323.8 92.7,322.9 98.6,312.4 				"/>
			</g>
		</g>
	</g>
</g>
<g id="horseline">
	<g>
		<g>
			<g>
				<path class="st1" d="M200.7,578.3c-0.5,1.3-0.6,2.8-0.2,4.1c0.4,1.3,1.1,2.6,2.2,3.4c1.1,0.8,2.4,1.5,3.8,1.5
					c0.7-0.1,1.4-0.3,2-0.3c0.7,0,1.4,0.1,2,0.3c1.4,0.4,2.4,1.4,3.6,2c1.2,0.7,2.5,1.2,3.9,1.5c0.7,0.2,1.4,0.3,2,0.1
					c0.7-0.2,1.1-0.8,1.6-1.3c0.5-0.5,1.3-0.6,2-0.4c0.3,0.1,0.7,0.1,0.9-0.2c0.2-0.3,0.3-0.6,0.3-0.9c0.1-1.4-0.3-2.8-0.9-4
					c-0.6-1.3-1.4-2.4-2.2-3.5c-1.7-2.2-3.8-4.1-5.9-5.8c-1.1-0.9-2.2-1.7-3.3-2.5c-1.1-0.9-2.2-1.8-2.7-3.1
					c-0.2-0.7-0.2-1.4-0.2-2.1c0-0.7-0.1-1.4-0.2-2.1c-0.2-1.4-0.6-2.7-1.2-4h0.1l-1.7,2.6c-0.6,0.9-1.1,1.7-1.8,2.5l-1.9,2.4
					c-0.3,0.4-0.6,0.8-0.9,1.2c0,0.1-0.1,0.2-0.1,0.3s0.2,0,0.3,0c0.2-0.1,0.5-0.2,0.7-0.3l0,0.1c-3.1,2.1-6,4.3-8.9,6.7
					s-5.6,4.9-8.2,7.5c-2.7,2.5-5.3,5.3-8.7,6.8c-3.4,1.5-7.3,1.7-10.9,0.8c3.6,0.9,7.5,0.7,10.9-0.8c3.4-1.6,6-4.3,8.7-6.8
					c2.6-2.6,5.4-5.2,8.2-7.5c2.9-2.4,5.8-4.6,8.9-6.7l0,0.1c-0.2,0.1-0.5,0.2-0.7,0.3c-0.1,0-0.3,0.1-0.4,0c-0.1-0.2,0-0.3,0.1-0.4
					c0.3-0.4,0.6-0.8,0.9-1.3l1.9-2.4c0.6-0.8,1.2-1.7,1.8-2.5l1.7-2.6l0-0.1l0,0.1c0.6,1.3,1,2.6,1.2,4c0.1,0.7,0.2,1.4,0.2,2.1
					c0,0.7,0,1.4,0.2,2c0.4,1.3,1.6,2.2,2.6,3.1c1.1,0.9,2.2,1.7,3.3,2.5c2.2,1.7,4.3,3.6,6,5.8c0.9,1.1,1.6,2.3,2.2,3.5
					s1,2.6,0.9,4c0,0.3-0.1,0.7-0.4,1c-0.2,0.3-0.6,0.3-1,0.2c-0.7-0.2-1.4-0.1-1.9,0.4c-0.5,0.5-0.9,1.1-1.6,1.3
					c-0.7,0.2-1.4,0.1-2.1-0.1c-1.3-0.3-2.6-0.8-3.9-1.5c-1.2-0.7-2.3-1.7-3.6-2c-0.7-0.2-1.4-0.3-2-0.3c-0.7,0-1.4,0.3-2,0.3
					c-1.4,0.1-2.7-0.6-3.8-1.5c-1.1-0.9-1.9-2.1-2.2-3.4C200.1,581.1,200.2,579.6,200.7,578.3z"/>
			</g>
			<g>
				<path class="st1" d="M194.7,572.3c-0.6-1-1.6-1.8-2.6-2.4c-1-0.6-2.2-1-3.4-1.2c-1.2-0.1-2.4,0-3.5,0.4
					c-1.1,0.4-2.2,0.9-3.1,1.6c-1.9,1.4-3.5,3.2-5.4,4.7c-1.8,1.6-3.8,3-5.8,4.1c-2.1,1.2-4.5,1.8-6.8,2.1c-2.4,0.3-4.7,0.6-7.1,0.5
					c-4.8-0.2-9.4-1.8-13.4-4.5c4,2.6,8.6,4.3,13.4,4.4c2.4,0.1,4.8-0.1,7.1-0.5c2.3-0.4,4.7-1,6.8-2.1c2.1-1.2,4-2.5,5.8-4.1
					c1.8-1.5,3.4-3.3,5.4-4.7c1-0.7,2-1.3,3.2-1.6c1.1-0.4,2.3-0.5,3.5-0.4c1.2,0.1,2.3,0.5,3.4,1.2
					C193.1,570.6,194.1,571.3,194.7,572.3z"/>
			</g>
			<g>
				<path class="st1" d="M213.7,577.5c-0.7-0.9-1.6-1.5-2.7-1.8c-1-0.3-2.2-0.2-3.2,0.2c1-0.5,2.2-0.6,3.2-0.3
					C212.2,575.9,213.1,576.6,213.7,577.5z"/>
			</g>
			<g>
				<path class="st1" d="M205.2,588.4c-0.9,1.9-1.7,3.9-2.4,5.9c-0.6,2-1.1,4.1-1.4,6.2c-0.2,1-0.4,2.1-0.9,3.1
					c-0.5,1-1.2,1.8-2,2.4c-1.8,1.2-4,1.4-6,1.9c2-0.5,4.2-0.7,6-2c0.9-0.6,1.5-1.4,2-2.4c0.5-0.9,0.7-2,0.8-3
					c0.4-2.1,0.8-4.2,1.5-6.2C203.5,592.3,204.3,590.3,205.2,588.4z"/>
			</g>
			<g>
				<path class="st1" d="M198.5,569.3c0.1-2-0.8-4-2.3-5.2c-1.6-1.2-3.6-1.6-5.6-1.4c-2,0.2-3.7,1.2-5.5,2l-5.4,2.4
					c-3.6,1.6-7.3,3.1-11.1,4c-1,0.2-1.9,0.4-2.9,0.4c-1,0.1-2,0-2.9-0.2c-1.9-0.4-3.7-1.4-5-3c1.3,1.5,3,2.6,5,2.9
					c1,0.2,2,0.2,2.9,0.2c1-0.1,2-0.2,2.9-0.4c3.8-0.9,7.5-2.4,11.1-4l5.4-2.4c1.8-0.8,3.6-1.7,5.6-1.9c2-0.2,4,0.2,5.6,1.4
					C197.8,565.3,198.7,567.3,198.5,569.3z"/>
			</g>
			<g>
				<path class="st7" d="M210.5,577.3"/>
			</g>
			<g>
				<path class="st1" d="M210.3,591.6c1.5,3.1,2.8,6.4,2.9,9.9c0,0.9-0.1,1.7-0.4,2.6c-0.3,0.8-0.7,1.6-1.3,2.3
					c-1.2,1.3-2.8,2.1-4.5,2.5c-1.7,0.4-3.4,0.5-5.1,0.5c-1.7,0-3.5-0.2-5.2-0.5c-3.4-0.5-6.8-1.4-10.1-2.4
					c-1.6-0.5-3.3-1.2-4.8-1.9c-1.6-0.7-3.1-1.6-4.5-2.5c-1.5-0.9-3-1.8-4.5-2.5c-1.5-0.8-3.2-1.4-4.8-1.9
					c-6.6-2.1-13.6-2.8-20.5-2.1c6.9-0.7,13.9-0.1,20.5,2c1.6,0.5,3.3,1.2,4.8,1.9c1.6,0.7,3.1,1.6,4.5,2.5c1.5,0.9,3,1.7,4.5,2.5
					s3.2,1.3,4.8,1.9c3.3,1,6.6,1.9,10,2.4c3.4,0.5,6.9,0.8,10.3,0c1.7-0.4,3.3-1.1,4.5-2.4c0.6-0.6,1-1.4,1.3-2.2
					c0.3-0.8,0.4-1.7,0.4-2.5C213.1,598,211.8,594.7,210.3,591.6z"/>
			</g>
		</g>
		<g>
			<polygon class="st1" points="136.6,595.5 87,595.6 37.5,595.5 87,595.5 			"/>
		</g>
		<g>
			<polygon class="st1" points="322.5,595.5 273,595.6 223.4,595.5 273,595.5 			"/>
		</g>
	</g>
</g>
</svg>
