<?xml version="1.0" encoding="utf-8"?>
<!-- Generator: Adobe Illustrator 23.0.3, SVG Export Plug-In . SVG Version: 6.00 Build 0)  -->
<svg version="1.1" id="clickHorse" xmlns="http://www.w3.org/2000/svg" xmlns:xlink="http://www.w3.org/1999/xlink" 
	  xml:space="preserve">
<style type="text/css">
	.st0{fill:#131F29;}
	.st1{fill:#D69B3A;}
	.st2{fill:none;stroke:#D69B3A;stroke-width:1.1476;stroke-miterlimit:10;}
	.st3{fill:#FFFFFF;stroke:#121F29;stroke-width:0.5738;stroke-miterlimit:10;}
</style>
<g id="horse">
	<path class="st0" d="M3.8,24.9c-0.4,0.5-0.4,0.9-0.1,1.4c0.4-0.2,0.6-0.5,0.7-1c0-0.1,0-0.1,0-0.2C4.2,25.1,4,25,3.8,24.9
		C3.8,24.9,3.8,24.9,3.8,24.9z"/>
	<path class="st0" d="M33.4,9.8c-0.3-0.5-0.6-0.9-0.9-1.3C32,7.9,31.5,7.2,31,6.6c-0.2-0.3-0.5-0.5-0.6-0.8
		c-0.1-0.2-0.3-0.4-0.4-0.5c-0.2-0.2-0.7-0.2-1.1-0.1c-0.6,0.2-0.7,0.4-1.6,1.1C25.2,8,25.1,8.3,24,9c-0.3,0.2-0.8,0.5-1.4,0.8
		c0.6-0.3,1-0.6,1.3-0.8c1.2-0.7,1.3-1,3.4-2.7c0.8-0.7,1-0.9,1.6-1.1c0.4-0.1,0.9-0.1,1.1,0.1c-0.4-0.3-0.8-0.5-1.3-0.7
		c0,0,0,0,0,0c-0.1,0-1-0.2-1.1-0.2c0,0,0.1,0.1,0.3,0.2c0.3,0.2,0.7,0.4,0.7,0.4c-0.4,0-1.1-0.1-1.9-0.1c-0.9-0.1-1.3-0.4-1.3-0.4
		c0,0,0.7,0.6,0.9,0.7c0,0,0.1,0.1,0.1,0.1l-0.5-0.1l-0.3-0.1l-0.1,0l-0.1,0l-0.1,0l-0.1,0L25,5L24.9,5l-0.1-0.1l-0.1-0.1l0-0.1
		l0-0.1c-0.1,0.3,0.3,0.6,0.4,0.8c0.3,0.3,0.6,0.4,0.7,0.4C25.6,5.9,25.4,6,25.2,6c-0.1,0-0.3,0.1-0.4,0.1c0,0-0.1,0-0.2,0
		c-0.1,0-0.1,0-0.2,0c-0.1,0-0.2-0.1-0.2-0.1c0,0,0.1,0.1,0.1,0.1c0.1,0.1,0.2,0.1,0.2,0.1c0,0,0.1,0,0.1,0c0.1,0,0.2,0,0.3,0
		c0,0,0.2,0,0.2,0l1.2,0c-0.2,0.1-0.4,0.1-0.5,0.1c-0.2,0-0.4,0-0.6,0.1c-0.1,0-0.3,0.2-0.4,0.2c0.1,0,0.2,0.1,0.4,0.1
		C24.5,7,23.9,7,23.5,7.4c0.5,0.1,1,0.1,1.5,0.2c0,0,0,0,0,0.1c-0.5,0-1,0.1-1.5,0.1c-0.1,0-0.3,0-0.4,0.1c0.2,0,0.8,0.1,0.9,0.1
		C23.8,8,23.4,8,23.4,8.1c-0.5,0.1-1.1,0.1-1.6,0c0,0,0,0,0,0c0.4,0.3,0.9,0.3,1.3,0.5c-0.5,0-0.9,0.1-1.4,0.1c-0.1,0-0.1,0-0.2,0
		c0,0,0,0,0,0c0,0,0,0,0,0.1C21.8,9,22,9,22.2,9.2c0,0,0,0.1,0,0.1c0,0,0,0,0,0c0,0,0,0,0,0.1c0,0.1,0,0.1,0,0.2
		c0,0.1-0.1,0.2-0.2,0.3l0,0c0,0,0,0,0,0s0,0,0,0c0,0,0,0,0,0c-0.1,0.1-0.2,0.2-0.3,0.3c0-0.1-0.1-0.1-0.1-0.1c0,0,0-0.1,0-0.2
		c0,0-0.3-0.1-0.4-0.1c0,0,0,0,0,0c0,0,0,0,0,0c0,0,0,0,0,0v0c0,0,0,0,0,0c0,0-1-0.9-1-0.9c-0.1-0.1-0.2-0.2-0.1-0.3
		c0.1-0.3,0.3-1,0.4-1.2c0-0.3,0-0.4-0.1-0.5c0-0.1-0.4-0.8-0.6-1.1c0,0,0-0.3,0-0.3c0,0,0,0,0,0c0,0,0,0,0,0h0c0,0,0,0,0,0
		c0-0.1,0-0.2,0.1-0.3c0-0.1,0.1-0.1,0.2-0.1c0.1,0,0.3,0,0.4-0.1c0,0,0.1-0.1,0.1-0.2c0.1-0.3,0.2-0.5,0.2-0.8l0,0v0
		c0.2,0,0.3,0,0.5-0.1c0.1-0.1,0.2-0.1,0.2-0.3c0-0.1-0.1-0.2-0.2-0.2c-0.1,0-0.2-0.1-0.3-0.1c0,0,0,0,0,0c0,0,0,0,0,0
		c0,0,0-0.1,0-0.1c0,0,0-0.1,0-0.1c0.1-0.2,0.1-0.3,0.2-0.5c0,0,0,0,0,0c0,0,0,0,0,0c0,0,0-0.1,0.1-0.1c0-0.1,0.1-0.1,0.1-0.1
		c0,0,0,0,0-0.1c0,0-0.1-0.1-0.1-0.1c0,0,0,0,0,0c0,0-0.1,0-0.1,0c-0.3-0.2-0.6-0.3-1-0.4c-0.1,0-0.1,0-0.2-0.1c0,0-0.1,0-0.2-0.1
		c0,0,0,0,0,0c0,0,0,0,0,0c0,0-0.1,0.1-0.1,0.1c-0.1,0.3-0.2,0.6-0.3,0.8c0,0,0,0,0,0s0,0,0,0c-0.1,0-0.1-0.1-0.2-0.1c0,0,0,0,0,0
		c0,0-0.1,0-0.1,0c-0.2-0.1-0.4,0-0.4,0.2c0,0,0,0,0,0.1c0,0,0,0.1,0,0.1c0,0.1,0.1,0.3,0.1,0.3c0,0,0,0,0,0c0,0,0,0,0,0
		c-0.1,0.2-0.1,0.4,0.1,0.5c0,0.2,0,0.4,0.1,0.6c0,0,0,0,0,0c0,0,0,0.1,0.1,0.1c0,0,0,0,0,0c0,0,0,0,0,0.1l0,0v0
		c0,0.1,0,0.1-0.1,0.2v0v0c0,0,0,0,0,0c0,0,0,0,0,0c-0.2,0.1-0.2,0.3-0.2,0.4c-0.1,0.2-0.6,1.2-0.6,1.2c0,0,0,0,0,0
		C18,6.6,18.1,7,18.1,7.5c0,0.2,0,0.4,0,0.7c0,0.1,0,0.2,0,0.3c0,0.1,0,0.2,0,0.2c0,0,0,0.1,0,0.1c0,0-0.1,0-0.1,0.1
		c-0.1,0-0.2,0.1-0.3,0.1c0,0,0,0,0,0c-0.3,0.2-0.4,0.4-0.6,0.7c0,0.1-0.1,0.2-0.2,0.3c-0.2,0.3-0.5,0.4-0.8,0.4c0,0,0,0,0,0
		s0,0,0,0v0v0c0,0-0.1,0-0.2,0c-0.6-0.1-1.2-0.4-1.9-0.5c-1.3-0.2-2.5,0.1-3.6,0.5c-0.2,0.1-0.7,0.7-0.8,0.8c0,0,0,0,0,0
		c-0.3,0.2-0.5,0.2-1.1,0.1c-0.7-0.2-1.4-0.5-2-0.6c-1.2-0.3-2.3,0-3.4,0.6c-0.5,0.3-1,0.6-1.4,1c-0.5,0.5-0.8,1-0.8,1.8
		c0.3-0.4,0.5-1,1.1-1.2c-0.2,0.3-0.3,0.6-0.5,0.9c0.1,0,0,0,0.1,0.1c0.8-0.7,1.8-1.1,2.9-0.9c-0.3,0.1-0.6,0.2-0.9,0.3
		c-0.3,0.1-0.5,0.3-0.8,0.4c-0.2,0.2-0.6,0.2-0.6,0.7c1.1-0.6,2.2-0.7,3.3-0.7c0,0,0,0.1,0,0.1c-0.2,0.1-0.4,0.1-0.5,0.2
		c0,0,0,0.1,0,0.1c0.5-0.1,1-0.1,1.6-0.2c-0.2,0.4-0.2,0.8,0.3,0.9c0-0.2,0.1-0.4,0.1-0.5C7,14.2,7.1,14,7.2,14
		c0.4-0.1,0.9-0.2,1.4-0.3c0,0.2,0,0.3,0,0.5c0,0.7,0,1.4,0,2c0,0.7-0.2,1.4-0.8,2c-0.4,0.4-0.9,0.8-1.5,1c-0.2,0.1-0.3,0.2-0.4,0.4
		c-0.5,1.1-1,2.1-1.5,3.2c-0.3,0.6-0.6,1.2-0.5,1.9c0,0.1,0,0.1-0.1,0.2C4,25,4.2,25.1,4.5,25.2c0.2-1.1,0.6-2.1,1.3-3
		c0.2-0.3,0.5-0.5,0.7-0.8c0.4-0.6,0.9-1,1.6-1.3c0.4-0.2,0.8-0.4,1.2-0.6c0.4-0.2,0.8-0.3,1.2-0.5c0,0,0,0,0.1,0.1
		c-0.3,0.6-0.6,1.1-1,1.7c-0.2,0.3-0.3,0.5-0.2,0.8c0.1,0.3,0.2,0.6,0.3,0.9c0.4,1,0.9,1.9,1.3,2.9c0.1,0.4,0.3,0.6,0.7,0.5
		c0.2,0,0.4,0,0.5,0.1c0,0,0,0,0,0c0.1,0.1,0.2,0.2,0.2,0.3c0,0.1,0.2,0.2,0.2,0.2c0.3,0,0.6,0,0.9,0c0-0.1,0-0.1,0.1-0.1
		c-0.3-0.3-0.4-0.7-0.8-0.9h0c-0.1,0-0.1-0.1-0.2-0.1c-0.3-0.1-0.4-0.3-0.7-0.5c-0.5-0.3-0.5-0.9-0.8-1.3c-0.3-0.5-0.4-1-0.4-1.5
		c0-0.6,0.2-1,0.7-1.4c0.9-0.8,1.5-1.9,2.5-2.6c0.1,0,0.1-0.1,0.1-0.2c0.3-0.4,0.6-0.8,0.9-1.1c0.7,0.3,1.4,0.6,2.1,0.9
		c0.8,0.3,1.7,0.6,2.6,0.6c1.1,0,2.1,0.1,3.2,0.1c0.4,0,0.7,0.2,1,0.5c0.6,0.6,1,1.4,1.3,2.2c0.1,0.3,0.3,0.5,0.5,0.8
		c0.5,0.7,0.9,1.4,1,2.2c0.1,0.5,0.3,0.9,0.8,1.2c0.1,0.1,0.2,0.2,0.2,0.3h0c0.1,0.1,0.1,0.2,0.1,0.2c0.1,0.1,0.2,0.3,0.3,0.3
		c0.3,0,0.7,0,1.1,0c-0.2-0.5-0.4-0.7-0.7-0.9c0,0,0,0,0,0h0c-0.4-0.2-0.6-0.6-0.7-1c-0.2-0.5-0.4-1-0.6-1.5
		c-0.2-0.4-0.4-0.8-0.6-1.2c-0.2-0.4-0.2-0.9-0.4-1.3c-0.2-0.6-0.4-1.3-0.4-2c1.1-0.5,2.2-0.3,3.2-0.3c0.4,0.6,0.4,1.3,0.4,1.9
		c0,0.3,0.1,0.7,0.1,1c0,0.2,0,0.5-0.1,0.7l0,0c0,0,0,0,0,0c-0.4,0.6-0.3,1.1,0.4,1.5c0.1-0.3,0.3-0.6,0.4-0.8l0,0c0,0,0-0.1,0-0.1
		c0.2-1.1,0.1-2.3-0.1-3.4c-0.1-0.5-0.2-1-0.4-1.5c-0.2-0.5-1-1-1.4-0.9c-0.7,0.4-1.2-0.1-1.8-0.3c0.1-0.3,0.2-0.7,0.3-0.9
		c0.4-0.5,0.5-1,0.6-1.6c0-0.2,0.1-0.5,0.1-0.7c0-0.2,0.1-0.4,0.1-0.5c0.1-0.4,0.3-0.8,0.4-1.2c0.2-0.5,0.4-0.9,0.4-1
		c0.2-0.1,0.3-0.2,0.5-0.2c0.4,0.1,0.8,0.3,1.2,0.5c0,0,1.3,1,1.6,1.4c0.1,0.1,0.4,0.1,0.6,0.1c0.1,0,0.2-0.1,0.2-0.1
		C33.5,11.1,33.8,10.4,33.4,9.8z M9.5,11.4C9.4,11.5,9.4,11.5,9.5,11.4C9.4,11.5,9.4,11.5,9.5,11.4z M21,10.3
		C21,10.3,21,10.3,21,10.3C21,10.3,21,10.3,21,10.3z"/>
</g>
<circle id="circle2" class="st1" cx="25.4" cy="17" r="4.4"/>
<circle id="circle1" class="st2" cx="25.4" cy="17" r="7.3"/>
<path id="hand" class="st3" d="M38.9,27.7c-0.3-0.5-0.9-0.6-1.2-0.7c-0.7-0.2-1.7,0.1-2.2,0.6c0,0,0,0,0,0c0,0.1-0.1,0.1-0.1,0.2
	l0,0c0-0.2,0-0.6-0.1-0.9c-0.1-0.2-0.2-0.5-0.5-0.8c-0.7-0.6-1.7-0.5-1.9-0.4c-0.1,0-0.3,0.1-0.5,0.2c-0.6,0.3-0.9,0.7-1,0.8
	c0-0.1,0-0.1,0-0.2c0-0.1,0-0.2,0-0.4c-0.1-0.6-0.6-1-0.7-1.1c-0.8-0.6-1.7-0.4-1.9-0.4c-0.5,0.1-1.1,0.5-1.4,0.8c0-2.6,0-5.2,0-7.8
	c-0.1-0.2-0.3-0.7-0.8-1.1c-0.9-0.6-2-0.1-2.1,0c-0.2,0.1-0.7,0.4-1,0.9c-0.1,0.3-0.1,0.6-0.1,0.8c0,2,0,3.9,0,5.9c0,3.2,0,6.8,0,10
	l0,0c-1.3-1.4-2.5-2.7-3-3.5c-1.3-1.7-1.8-2.7-3.1-2.8c-0.1,0-1.2,0-1.9,0.8c-0.7,0.8-0.7,2,0.2,3.3c0,0,0,0.1,0.1,0.1
	c2.3,3.3,5.8,7.4,8.3,11c0.1,0.1,0.2,0.4,0.6,0.5c0.2,0.1,0.4,0.1,0.5,0.1h10.4c0,0,0.1,0,0.1,0c0.2,0,0.5-0.1,0.8-0.2
	c0,0,0.4-0.2,0.7-0.4c0.2-0.2,1.8-1.7,2.1-5.6c0-0.4,0.1-0.7,0.1-0.9c0-2.6,0-5.3,0-7.9C39.2,28.3,39.1,28,38.9,27.7z"/>
</svg>
